# xmcd
#
# Track frame offsets: 
#        150
#        20625
#        36725
#        54105
#        67185
#        87605
#        103370
#        125960
#        138365
#        169415
#
# Disc length: 2427 seconds
#
# Revision: 0
# Processed by: cddbd v1.5.1PL2 Copyright (c) Steve Scherf et al.
# Submitted via: ExactAudioCopy v0.95b4
#
DISCID=a109790a
DTITLE=Sulllivan Andrews - The Classic Hottie-Tottie
DYEAR=2006
DGENRE=Blues
TTITLE0=Chameleon
TTITLE1=Before the Flood
TTITLE2=Perfect Alibi
TTITLE3=Trickle Down
TTITLE4=Survival and Security
TTITLE5=Burning Zeal
TTITLE6=East of the Sun
TTITLE7=Incredible Son
TTITLE8=Why Tempt Fate?
TTITLE9=Pockets of Resistance
EXTD=
EXTT0=
EXTT1=
EXTT2=
EXTT3=
EXTT4=
EXTT5=
EXTT6=
EXTT7=
EXTT8=
EXTT9=
PLAYORDER=
